<svg xmlns="http://www.w3.org/2000/svg" viewBox="0 0 95.79 42.12"><defs><style>.a{fill:#fff;}</style></defs><title>logo_junta</title><circle class="a" cx="22.26" cy="20.76" r="2.39"/><circle class="a" cx="11.65" cy="15.98" r="2.39"/><circle class="a" cx="19.49" cy="8.59" r="1.57"/><circle class="a" cx="11.73" cy="6.05" r="1.57"/><circle class="a" cx="31.44" cy="9.63" r="1.57"/><circle class="a" cx="25.54" cy="6.42" r="1.34"/><circle class="a" cx="36.3" cy="11.35" r="1.05"/><circle class="a" cx="34.95" cy="8.66" r="0.75"/><circle class="a" cx="38.69" cy="10.01" r="0.75"/><circle class="a" cx="21.96" cy="33.31" r="0.75"/><circle class="a" cx="16.43" cy="23.15" r="0.75"/><circle class="a" cx="0.75" cy="5.97" r="0.75"/><circle class="a" cx="4.03" cy="16.13" r="0.75"/><circle class="a" cx="33.01" cy="15.98" r="0.75"/><circle class="a" cx="30.02" cy="13.44" r="0.75"/><circle class="a" cx="25.84" cy="11.95" r="0.75"/><circle class="a" cx="7.62" cy="12.7" r="1.49"/><circle class="a" cx="25.47" cy="15.76" r="1.57"/><circle class="a" cx="21.06" cy="12.7" r="1.34"/><circle class="a" cx="25.02" cy="27.86" r="1.57"/><circle class="a" cx="16.21" cy="19.49" r="1.57"/><circle class="a" cx="25.02" cy="2.91" r="1.57"/><circle class="a" cx="12.1" cy="1.79" r="1.19"/><circle class="a" cx="8.22" cy="5.38" r="1.05"/><circle class="a" cx="3.73" cy="12.4" r="1.05"/><circle class="a" cx="11.65" cy="11.2" r="1.05"/><circle class="a" cx="16.73" cy="6.42" r="1.05"/><circle class="a" cx="27.73" cy="18.42" r="1.05"/><circle class="a" cx="14.34" cy="10.9" r="1.05"/><circle class="a" cx="17.03" cy="12.55" r="1.05"/><circle class="a" cx="19.57" cy="16.43" r="1.05"/><circle class="a" cx="23.9" cy="9.11" r="1.05"/><circle class="a" cx="27.19" cy="9.26" r="1.05"/><circle class="a" cx="24.8" cy="31.97" r="1.05"/><circle class="a" cx="19.87" cy="27.33" r="1.05"/><circle class="a" cx="24.8" cy="36" r="1.05"/><circle class="a" cx="20.69" cy="24.72" r="0.97"/><circle class="a" cx="42.42" cy="13" r="1.05"/><circle class="a" cx="38.42" cy="15" r="1.05"/><circle class="a" cx="18.07" cy="4.18" r="0.9"/><circle class="a" cx="15.61" cy="15.46" r="0.67"/><circle class="a" cx="9.78" cy="9.19" r="0.67"/><circle class="a" cx="6.5" cy="8.59" r="0.67"/><circle class="a" cx="5.15" cy="5.75" r="0.67"/><circle class="a" cx="15.61" cy="3.81" r="0.67"/><circle class="a" cx="15.01" cy="0.67" r="0.67"/><circle class="a" cx="20.39" cy="3.81" r="0.67"/><circle class="a" cx="22.18" cy="6.8" r="0.67"/><circle class="a" cx="29.2" cy="6.35" r="0.67"/><circle class="a" cx="22.18" cy="29.35" r="0.67"/><circle class="a" cx="28.31" cy="32.49" r="0.67"/><circle class="a" cx="25.92" cy="34.13" r="0.67"/><circle class="a" cx="27.71" cy="36.07" r="0.67"/><circle class="a" cx="25.02" cy="38.61" r="0.67"/><circle class="a" cx="22.48" cy="39.51" r="0.67"/><circle class="a" cx="23.53" cy="41.45" r="0.67"/><circle class="a" cx="19.79" cy="38.61" r="0.67"/><circle class="a" cx="21.73" cy="36.97" r="0.67"/><path class="a" d="M31.34,26.49v-.95a1,1,0,0,0,.54.16q.5,0,.5-.53V21.93h1.07V25.2a1.46,1.46,0,0,1-.36,1.05,1.32,1.32,0,0,1-1,.38A1.63,1.63,0,0,1,31.34,26.49Z" transform="translate(-2 -2.4)"/><path class="a" d="M37,24.81V21.92h1.08v2.88a1.84,1.84,0,0,1-.52,1.41,2.25,2.25,0,0,1-2.79,0,1.76,1.76,0,0,1-.52-1.36V21.92h1.07v2.92q0,.87.84.87T37,24.81Z" transform="translate(-2 -2.4)"/><path class="a" d="M39,26.63v-4.7h1.18l1.1,1.95q.23.41.4.77a5.44,5.44,0,0,1,.22.51l.06.15a11.34,11.34,0,0,1-.07-1.43V21.92h1.08v4.7H41.76l-1.12-1.95q-.22-.38-.39-.74T40,23.4L40,23.22a9,9,0,0,1,.1,1.46v1.95Z" transform="translate(-2 -2.4)"/><path class="a" d="M47,21.92v.87H45.84v3.84H44.76V22.79H43.6v-.87Z" transform="translate(-2 -2.4)"/><path class="a" d="M50.7,26.63l-.29-1H48.76l-.29,1H47.35l1.57-4.7h1.35l1.57,4.7ZM49,24.8h1.13l0-.17q-.2-.68-.33-1.17t-.16-.62l0-.14a19.73,19.73,0,0,1-.52,1.93Z" transform="translate(-2 -2.4)"/><path class="a" d="M55.18,22.13v1A2.3,2.3,0,0,0,54,22.81a.67.67,0,0,0-.42.11.35.35,0,0,0-.14.29.39.39,0,0,0,.17.31,2.55,2.55,0,0,0,.52.29l.36.17.33.2a1.3,1.3,0,0,1,.29.27,1.35,1.35,0,0,1,.19.35,1.31,1.31,0,0,1,.08.45,1.28,1.28,0,0,1-.47,1,1.86,1.86,0,0,1-1.24.39,2.76,2.76,0,0,1-1.35-.29V25.31a2.27,2.27,0,0,0,1.35.46.62.62,0,0,0,.4-.13.41.41,0,0,0,.16-.34.43.43,0,0,0,0-.13.31.31,0,0,0-.08-.12L54,25l-.15-.09-.17-.09-.21-.1-.22-.1a2.2,2.2,0,0,1-.73-.52,1.18,1.18,0,0,1-.28-.82,1.22,1.22,0,0,1,.45-1A1.87,1.87,0,0,1,54,21.89,2.86,2.86,0,0,1,55.18,22.13Z" transform="translate(-2 -2.4)"/><path class="a" d="M61.27,22.12v1a2.19,2.19,0,0,0-1.17-.32,1.27,1.27,0,0,0-.95.39,1.45,1.45,0,0,0-.38,1.06,1.39,1.39,0,0,0,.38,1,1.35,1.35,0,0,0,1,.38,1.88,1.88,0,0,0,1.12-.34v1.05a2.34,2.34,0,0,1-1.23.27A2.4,2.4,0,0,1,58.31,26a2.29,2.29,0,0,1-.69-1.73A2.32,2.32,0,0,1,60,21.86,2.32,2.32,0,0,1,61.27,22.12Z" transform="translate(-2 -2.4)"/><path class="a" d="M61.9,24.26a2.45,2.45,0,0,1,.62-1.75,2.42,2.42,0,0,1,3.33,0,2.77,2.77,0,0,1,0,3.5,2.42,2.42,0,0,1-3.33,0A2.46,2.46,0,0,1,61.9,24.26Zm1.46-1.05a2,2,0,0,0,0,2.1,1.08,1.08,0,0,0,1.66,0,2,2,0,0,0,0-2.1,1.08,1.08,0,0,0-1.66,0Z" transform="translate(-2 -2.4)"/><path class="a" d="M67.11,26.63l.4-4.7h1.18l.66,1.7q.17.43.29.78t.15.5l0,.14a12.39,12.39,0,0,1,.49-1.42l.66-1.7h1.18l.49,4.7H71.57l-.17-1.82-.09-1.37q-.18.52-.5,1.38l-.66,1.77H69.5l-.66-1.77q-.16-.43-.27-.77t-.15-.47l0-.13q0,.5-.06,1.38l-.15,1.82Z" transform="translate(-2 -2.4)"/><path class="a" d="M74.53,25.77h1.84v.86H73.44v-4.7h2.9v.86H74.53v1.07h1.62v.85H74.53Z" transform="translate(-2 -2.4)"/><path class="a" d="M79.66,26.63l-1-1.63h-.33v1.63H77.24v-4.7h1.63a1.86,1.86,0,0,1,1.27.42,1.52,1.52,0,0,1-.38,2.48l1.19,1.81Zm-1.35-3.83v1.33h.51A.69.69,0,0,0,79.34,23a.69.69,0,0,0-.5-.17Z" transform="translate(-2 -2.4)"/><path class="a" d="M85,22.12v1a2.19,2.19,0,0,0-1.17-.32,1.27,1.27,0,0,0-.95.39,1.45,1.45,0,0,0-.38,1.06,1.39,1.39,0,0,0,.38,1,1.35,1.35,0,0,0,1,.38A1.88,1.88,0,0,0,85,25.36v1.05a2.34,2.34,0,0,1-1.23.27A2.4,2.4,0,0,1,82,26a2.29,2.29,0,0,1-.69-1.73,2.32,2.32,0,0,1,2.43-2.43A2.32,2.32,0,0,1,85,22.12Z" transform="translate(-2 -2.4)"/><path class="a" d="M85.88,26.63v-4.7H87v4.7Z" transform="translate(-2 -2.4)"/><path class="a" d="M91,26.63l-.29-1H89l-.29,1H87.63l1.57-4.7h1.35l1.57,4.7ZM89.3,24.8h1.13l0-.17q-.2-.68-.33-1.17t-.16-.62l0-.14q-.06.38-.52,1.93Z" transform="translate(-2 -2.4)"/><path class="a" d="M92.81,26.63v-4.7h1.08v4.7Z" transform="translate(-2 -2.4)"/><path class="a" d="M97.58,22.13v1a2.31,2.31,0,0,0-1.17-.33.67.67,0,0,0-.42.11.35.35,0,0,0-.14.29.39.39,0,0,0,.17.31,2.55,2.55,0,0,0,.52.29l.36.17a2.85,2.85,0,0,1,.33.2,1.29,1.29,0,0,1,.29.27,1.39,1.39,0,0,1,.18.35,1.32,1.32,0,0,1,.08.45,1.28,1.28,0,0,1-.47,1,1.87,1.87,0,0,1-1.24.39,2.75,2.75,0,0,1-1.35-.29V25.31a2.26,2.26,0,0,0,1.35.46.63.63,0,0,0,.41-.13.41.41,0,0,0,.16-.34.43.43,0,0,0,0-.13.31.31,0,0,0-.08-.12L96.44,25l-.15-.09-.17-.09-.21-.1-.22-.1a2.2,2.2,0,0,1-.73-.52,1.18,1.18,0,0,1-.28-.82,1.22,1.22,0,0,1,.45-1,1.87,1.87,0,0,1,1.24-.37A2.86,2.86,0,0,1,97.58,22.13Z" transform="translate(-2 -2.4)"/><path class="a" d="M32.09,31.62v-3h.27v3Z" transform="translate(-2 -2.4)"/><path class="a" d="M33.71,31.62v-3h.38l.76,1.26.84,1.39q0-.46,0-1.39V28.65H36v3h-.37l-.75-1.25L34,29q0,.48,0,1.39v1.26Z" transform="translate(-2 -2.4)"/><path class="a" d="M38.91,28.65v.25h-.82v2.72h-.27V28.9H37v-.25Z" transform="translate(-2 -2.4)"/><path class="a" d="M39.86,31.37H41.2v.25H39.59v-3h1.58v.25H39.86V30H41v.25H39.86Z" transform="translate(-2 -2.4)"/><path class="a" d="M44.27,30V31.4a1.45,1.45,0,0,1-.88.26,1.49,1.49,0,0,1-1.09-.41,1.5,1.5,0,0,1-.41-1.12,1.55,1.55,0,0,1,.4-1.1,1.34,1.34,0,0,1,1-.43,1.64,1.64,0,0,1,.86.21v.3a1.41,1.41,0,0,0-.83-.24,1.12,1.12,0,0,0-.85.35,1.27,1.27,0,0,0-.33.92,1.26,1.26,0,0,0,.33.92,1.2,1.2,0,0,0,.9.33,1.3,1.3,0,0,0,.6-.14v-1h-.7V30Z" transform="translate(-2 -2.4)"/><path class="a" d="M47.08,31.62h-.33L46,30.41h-.53v1.21H45.2v-3h.67a1.12,1.12,0,0,1,.78.24.86.86,0,0,1,.26.67.89.89,0,0,1-.17.52.8.8,0,0,1-.45.3Zm-1.61-1.45H46a.67.67,0,0,0,.5-.18.62.62,0,0,0,.18-.45q0-.65-.73-.65h-.43Z" transform="translate(-2 -2.4)"/><path class="a" d="M49.8,31.62l-.28-.82H48.2l-.29.82h-.3l1.05-3h.4l1,3Zm-1.51-1.07h1.15l-.07-.19-.5-1.49-.52,1.49Z" transform="translate(-2 -2.4)"/><path class="a" d="M53,28.77v.29a1.83,1.83,0,0,0-.34-.14,1.61,1.61,0,0,0-.41,0,1.15,1.15,0,0,0-.85.35,1.23,1.23,0,0,0-.34.9,1.28,1.28,0,0,0,.34.93,1.19,1.19,0,0,0,.9.35,1.14,1.14,0,0,0,.73-.23v.3a1.27,1.27,0,0,1-.74.19,1.48,1.48,0,0,1-1.09-.41,1.52,1.52,0,0,1-.41-1.13,1.45,1.45,0,0,1,1.49-1.51A1.64,1.64,0,0,1,53,28.77Zm-1,3.08h.27a.53.53,0,0,1,.08.31.52.52,0,0,1-.16.39.69.69,0,0,1-.47.17V32.5q.38,0,.38-.32A.64.64,0,0,0,52,31.84Z" transform="translate(-2 -2.4)"/><path class="a" d="M55.78,31.62l-.28-.82H54.18l-.29.82h-.3l1.05-3H55l1,3Zm-.41-3.77.19.12a.42.42,0,0,1-.39.28.73.73,0,0,1-.31-.1.76.76,0,0,0-.27-.1.33.33,0,0,0-.3.22l-.16-.13a.53.53,0,0,1,.17-.21.42.42,0,0,1,.25-.09.73.73,0,0,1,.32.1.71.71,0,0,0,.27.1Q55.28,28,55.37,27.85Zm-1.11,2.7h1.15l-.07-.19-.5-1.49-.52,1.49Z" transform="translate(-2 -2.4)"/><path class="a" d="M56.73,30.12A1.68,1.68,0,0,1,57.08,29,1.31,1.31,0,0,1,59,29a2,2,0,0,1,0,2.24,1.17,1.17,0,0,1-.95.41,1.19,1.19,0,0,1-1-.42A1.65,1.65,0,0,1,56.73,30.12Zm.28,0a1.42,1.42,0,0,0,.28.93.92.92,0,0,0,.75.34.9.9,0,0,0,.75-.34,1.77,1.77,0,0,0,0-1.87,1,1,0,0,0-1.5,0A1.45,1.45,0,0,0,57,30.12Z" transform="translate(-2 -2.4)"/><circle class="a" cx="43.17" cy="15.39" r="0.75"/><circle class="a" cx="33.16" cy="12.7" r="0.75"/><circle class="a" cx="36.16" cy="17.7" r="0.75"/><circle class="a" cx="25.84" cy="24.2" r="0.6"/><circle class="a" cx="27.84" cy="22.2" r="0.6"/><circle class="a" cx="27.71" cy="29.95" r="0.67"/></svg>