<?xml version="1.0" encoding="utf-8"?>
<!-- Generator: Adobe Illustrator 21.1.0, SVG Export Plug-In . SVG Version: 6.00 Build 0)  -->
<svg version="1.1" id="Camada_1" xmlns="http://www.w3.org/2000/svg" xmlns:xlink="http://www.w3.org/1999/xlink" x="0px" y="0px"
	 viewBox="0 0 100 100" style="enable-background:new 0 0 100 100;" xml:space="preserve">
<style type="text/css">
	.st0{fill:#60697D;}
</style>
<path class="st0" d="M56.1,70.1l19.1,19.1c3,3,8.1,3,11.1,0c3-3,3-8.1,0-11.1L67.1,59c7.9-13,6.3-30-4.9-41.1
	c-13.1-13.1-34.3-13.1-47.4,0s-13.1,34.3,0,47.4C26.2,76.3,43.2,78,56.1,70.1z M24.7,27.5c7.6-7.6,20.2-7.6,27.9,0s7.6,20.2,0,27.9
	s-20.2,7.6-27.9,0S17,35.2,24.7,27.5z"/>
</svg>
