<svg xmlns="http://www.w3.org/2000/svg" viewBox="0 0 100 91"><defs><style>.a{fill:#00bcd4;}</style></defs><title>icoPrancheta 1</title><path class="a" d="M56.55,72.75H11v-5.1c0-4,9.46-8.71,16.26-10.73,2.66-.64,6.06-1.49,6.06-5.42V44.28a13.89,13.89,0,0,0,6.27,1.38h.21A13,13,0,0,0,43.9,45V51.5c0,3.93,3.4,4.78,6.06,5.42.74.21,9.24,2.87,13.81,6.8a2.24,2.24,0,0,0,1.38.53,1.91,1.91,0,0,0,1.59-.74,2.16,2.16,0,0,0-.21-3c-5.42-4.67-15-7.54-15.41-7.65H51c-.74-.21-2.66-.64-2.87-1V43.11a14.67,14.67,0,0,0,6.48-12.22V22.82A14.92,14.92,0,0,0,39.76,7.94h-.21A14.92,14.92,0,0,0,24.67,22.82v8.07A14.85,14.85,0,0,0,29,41.41a.8.8,0,0,0-.11.53v10c-.21.32-2.12.74-2.76,1h-.11c-2,.64-19.34,5.95-19.34,14.77v7.22A2.13,2.13,0,0,0,8.84,77h47.7a2.12,2.12,0,0,0,0-4.25Zm-27.62-42v-8A10.66,10.66,0,0,1,39.55,12.19h.21A10.66,10.66,0,0,1,50.39,22.82v8.07A10.66,10.66,0,0,1,39.76,41.51h-.21A10.75,10.75,0,0,1,28.92,30.78Z"/><path class="a" d="M75.78,30.78v-8A14.92,14.92,0,0,0,60.9,7.94h-.21a2.12,2.12,0,0,0,0,4.25h.21A10.66,10.66,0,0,1,71.53,22.82v8.07A10.66,10.66,0,0,1,60.9,41.51h-.21a2.12,2.12,0,0,0,0,4.25h.21A13,13,0,0,0,65,45.13V51.5c0,3.93,3.4,4.78,6.16,5.42.21,0,.32.11.53.11a2.1,2.1,0,0,0,.42-4.14c-.74-.21-2.66-.64-2.87-1V43.11A15,15,0,0,0,75.78,30.78Z"/><path class="a" d="M66.4,84.15a2.38,2.38,0,1,0,3.36,3.36L74.29,83a12.22,12.22,0,1,0-3.36-3.36Zm14.67-3.87a7.45,7.45,0,1,1,7.46-7.45A7.45,7.45,0,0,1,81.07,80.28Z"/></svg>