<svg xmlns="http://www.w3.org/2000/svg" viewBox="0 0 177.66 29.06"><defs><style>.a{fill:#fff;}</style></defs><title>ats-logotipo</title><path class="a" d="M1.34,15.42V12.88a2.67,2.67,0,0,0,1.44.43q1.32,0,1.33-1.42V3.21H7V12a3.91,3.91,0,0,1-1,2.82,3.52,3.52,0,0,1-2.68,1A4.35,4.35,0,0,1,1.34,15.42Z" transform="translate(-1.34 -2.99)"/><path class="a" d="M16.57,10.92V3.2h2.87V10.9a4.91,4.91,0,0,1-1.38,3.76A5.23,5.23,0,0,1,14.33,16a5.27,5.27,0,0,1-3.71-1.29A4.7,4.7,0,0,1,9.22,11V3.2h2.87V11q0,2.33,2.24,2.33T16.57,10.92Z" transform="translate(-1.34 -2.99)"/><path class="a" d="M21.77,15.77V3.2h3.15L27.86,8.4q.61,1.1,1.07,2.06a14.55,14.55,0,0,1,.59,1.35l.15.41a30.31,30.31,0,0,1-.19-3.83V3.2h2.87V15.77H29.2l-3-5.21q-.6-1-1.05-2t-.63-1.45l-.15-.47a24,24,0,0,1,.28,3.9v5.21Z" transform="translate(-1.34 -2.99)"/><path class="a" d="M43.16,3.2V5.51H40.1V15.77H37.21V5.51H34.13V3.2Z" transform="translate(-1.34 -2.99)"/><path class="a" d="M53.09,15.77l-.76-2.58h-4.4l-.77,2.58h-3L48.35,3.2H52l4.2,12.58Zm-4.48-4.89h3l-.13-.45Q51,8.61,50.62,7.32T50.2,5.66l-.08-.37a52.75,52.75,0,0,1-1.38,5.15Z" transform="translate(-1.34 -2.99)"/><path class="a" d="M65.07,3.76V6.44a6.16,6.16,0,0,0-3.13-.88,1.78,1.78,0,0,0-1.11.3.93.93,0,0,0-.38.76,1,1,0,0,0,.47.83,6.83,6.83,0,0,0,1.4.78l1,.46a7.86,7.86,0,0,1,.88.54,3.49,3.49,0,0,1,.78.73,3.61,3.61,0,0,1,.49.94,3.49,3.49,0,0,1,.2,1.21,3.43,3.43,0,0,1-1.25,2.75,5,5,0,0,1-3.32,1.05,7.37,7.37,0,0,1-3.62-.78V12.25a6.06,6.06,0,0,0,3.62,1.23,1.67,1.67,0,0,0,1.08-.35,1.11,1.11,0,0,0,.43-.9,1.14,1.14,0,0,0-.06-.36.82.82,0,0,0-.21-.32A2.67,2.67,0,0,0,62,11.3a3.5,3.5,0,0,0-.41-.24l-.46-.23-.55-.26L60,10.31a5.89,5.89,0,0,1-2-1.38,3.14,3.14,0,0,1-.74-2.18,3.25,3.25,0,0,1,1.19-2.62,5,5,0,0,1,3.3-1A7.64,7.64,0,0,1,65.07,3.76Z" transform="translate(-1.34 -2.99)"/><path class="a" d="M81.36,3.74V6.5a5.84,5.84,0,0,0-3.12-.86A3.4,3.4,0,0,0,75.71,6.7a3.88,3.88,0,0,0-1,2.83,3.7,3.7,0,0,0,1,2.75,3.61,3.61,0,0,0,2.65,1,5,5,0,0,0,3-.9v2.82a6.25,6.25,0,0,1-3.28.71,6.41,6.41,0,0,1-4.62-1.78A6.11,6.11,0,0,1,71.6,9.52,6.19,6.19,0,0,1,78.1,3,6.21,6.21,0,0,1,81.36,3.74Z" transform="translate(-1.34 -2.99)"/><path class="a" d="M83,9.45a6.56,6.56,0,0,1,1.67-4.67,6.47,6.47,0,0,1,8.91,0,6.57,6.57,0,0,1,1.66,4.68,6.56,6.56,0,0,1-1.67,4.67,6.47,6.47,0,0,1-8.91,0A6.57,6.57,0,0,1,83,9.45Zm3.9-2.81a4.4,4.4,0,0,0-.82,2.81,4.39,4.39,0,0,0,.82,2.81,2.9,2.9,0,0,0,4.44,0,4.4,4.4,0,0,0,.82-2.81,4.4,4.4,0,0,0-.82-2.81,2.9,2.9,0,0,0-4.44,0Z" transform="translate(-1.34 -2.99)"/><path class="a" d="M97,15.77,98,3.2h3.15L103,7.75q.45,1.14.76,2.09t.41,1.34l.09.37a33.13,33.13,0,0,1,1.31-3.81L107.3,3.2h3.15l1.31,12.58h-2.87l-.47-4.87-.24-3.68q-.49,1.4-1.34,3.68l-1.77,4.74h-1.7l-1.75-4.74q-.43-1.16-.73-2.07t-.39-1.27l-.09-.34q0,1.32-.17,3.68l-.39,4.87Z" transform="translate(-1.34 -2.99)"/><path class="a" d="M116.8,13.48h4.93v2.29h-7.82V3.2h7.75V5.49H116.8V8.35h4.33v2.28H116.8Z" transform="translate(-1.34 -2.99)"/><path class="a" d="M130.54,15.77l-2.72-4.37h-.88v4.37h-2.87V3.2h4.35a5,5,0,0,1,3.39,1.12,3.69,3.69,0,0,1,1.28,2.91,3.72,3.72,0,0,1-2.29,3.71L134,15.77Zm-3.6-10.25V9.07h1.36a1.63,1.63,0,0,0,1.87-1.83A1.65,1.65,0,0,0,129.68,6a1.85,1.85,0,0,0-1.33-.46Z" transform="translate(-1.34 -2.99)"/><path class="a" d="M144.81,3.74V6.5a5.84,5.84,0,0,0-3.12-.86,3.4,3.4,0,0,0-2.54,1.05,3.88,3.88,0,0,0-1,2.83,3.7,3.7,0,0,0,1,2.75,3.61,3.61,0,0,0,2.65,1,5,5,0,0,0,3-.9v2.82a6.25,6.25,0,0,1-3.28.71,6.41,6.41,0,0,1-4.62-1.78,6.11,6.11,0,0,1-1.86-4.62A6.19,6.19,0,0,1,141.55,3,6.2,6.2,0,0,1,144.81,3.74Z" transform="translate(-1.34 -2.99)"/><path class="a" d="M147.14,15.77V3.2H150V15.77Z" transform="translate(-1.34 -2.99)"/><path class="a" d="M160.79,15.77,160,13.2h-4.4l-.76,2.58h-3L156,3.2h3.62l4.2,12.58Zm-4.48-4.89h3l-.13-.45q-.54-1.83-.89-3.12t-.42-1.66l-.07-.37q-.15,1-1.38,5.15Z" transform="translate(-1.34 -2.99)"/><path class="a" d="M165.7,15.77V3.2h2.87V15.77Z" transform="translate(-1.34 -2.99)"/><path class="a" d="M178.44,3.76V6.44a6.16,6.16,0,0,0-3.14-.88,1.78,1.78,0,0,0-1.11.3.93.93,0,0,0-.38.76,1,1,0,0,0,.47.83,6.83,6.83,0,0,0,1.4.78c.39.17.71.33,1,.46a7.63,7.63,0,0,1,.88.54,3.45,3.45,0,0,1,.79.73,3.73,3.73,0,0,1,.49.94,3.53,3.53,0,0,1,.21,1.21,3.43,3.43,0,0,1-1.25,2.75,5,5,0,0,1-3.32,1.05,7.36,7.36,0,0,1-3.62-.78V12.25a6,6,0,0,0,3.62,1.23,1.67,1.67,0,0,0,1.08-.35,1.11,1.11,0,0,0,.43-.9,1.14,1.14,0,0,0-.05-.36.82.82,0,0,0-.21-.32,2.55,2.55,0,0,0-.29-.25,3.26,3.26,0,0,0-.41-.24l-.46-.23-.55-.26-.59-.26a5.87,5.87,0,0,1-2-1.38,3.14,3.14,0,0,1-.74-2.18,3.25,3.25,0,0,1,1.19-2.62,5,5,0,0,1,3.3-1A7.64,7.64,0,0,1,178.44,3.76Z" transform="translate(-1.34 -2.99)"/><path class="a" d="M3.36,29.12V21.17h.73v7.95Z" transform="translate(-1.34 -2.99)"/><path class="a" d="M7.69,29.12V21.17h1l2,3.36L13,28.26q0-1.23,0-3.71V21.17h.73v7.95h-1l-2-3.34L8.4,22q0,1.27,0,3.73v3.36Z" transform="translate(-1.34 -2.99)"/><path class="a" d="M21.57,21.17v.67h-2.2v7.28h-.73V21.84H16.44v-.67Z" transform="translate(-1.34 -2.99)"/><path class="a" d="M24.13,28.45H27.7v.67H23.4V21.17h4.23v.67h-3.5v3h3.09v.67H24.13Z" transform="translate(-1.34 -2.99)"/><path class="a" d="M35.91,24.75v3.79a3.88,3.88,0,0,1-2.36.68,4,4,0,0,1-2.92-1.09,4,4,0,0,1-1.1-3,4.15,4.15,0,0,1,1.08-2.95A3.58,3.58,0,0,1,33.34,21a4.38,4.38,0,0,1,2.31.55v.81a3.77,3.77,0,0,0-2.22-.64,3,3,0,0,0-2.27.93,3.4,3.4,0,0,0-.88,2.45,3.37,3.37,0,0,0,.87,2.46,3.21,3.21,0,0,0,2.41.89,3.46,3.46,0,0,0,1.62-.37V25.39H33.3v-.65Z" transform="translate(-1.34 -2.99)"/><path class="a" d="M43.41,29.12h-.87l-2-3.23H39.12v3.23h-.73V21.17h1.79a3,3,0,0,1,2.08.63A2.3,2.3,0,0,1,43,23.59,2.39,2.39,0,0,1,42.5,25a2.13,2.13,0,0,1-1.2.79Zm-4.29-3.88H40.4a1.79,1.79,0,0,0,1.34-.48,1.66,1.66,0,0,0,.47-1.2q0-1.73-2-1.73H39.12Z" transform="translate(-1.34 -2.99)"/><path class="a" d="M50.69,29.12l-.75-2.2H46.42l-.77,2.2h-.79l2.81-7.95h1.06l2.75,7.95Zm-4-2.85h3.08l-.18-.51-1.34-4q-.15.47-1.38,4Z" transform="translate(-1.34 -2.99)"/><path class="a" d="M59.2,21.49v.77a4.89,4.89,0,0,0-.92-.38,4.31,4.31,0,0,0-1.11-.11,3.07,3.07,0,0,0-2.28.93A3.28,3.28,0,0,0,54,25.1a3.43,3.43,0,0,0,.9,2.49,3.19,3.19,0,0,0,2.4.93,3,3,0,0,0,1.95-.61v.8a3.39,3.39,0,0,1-2,.51,4,4,0,0,1-2.91-1.1,4.06,4.06,0,0,1-1.11-3,3.87,3.87,0,0,1,4-4A4.38,4.38,0,0,1,59.2,21.49ZM56.6,29.72h.72a1.43,1.43,0,0,1,.21.83,1.39,1.39,0,0,1-.44,1,1.85,1.85,0,0,1-1.25.46v-.58q1-.11,1-.86A1.7,1.7,0,0,0,56.6,29.72Z" transform="translate(-1.34 -2.99)"/><path class="a" d="M66.68,29.12l-.75-2.2H62.41l-.77,2.2h-.79l2.81-7.95h1.06l2.75,7.95ZM65.59,19l.5.33a1.13,1.13,0,0,1-1,.75,2,2,0,0,1-.82-.27,2,2,0,0,0-.71-.27.89.89,0,0,0-.79.58l-.42-.35a1.42,1.42,0,0,1,.46-.57,1.12,1.12,0,0,1,.68-.23,1.94,1.94,0,0,1,.84.27,1.91,1.91,0,0,0,.72.27Q65.36,19.56,65.59,19Zm-3,7.22h3.08l-.18-.51-1.34-4q-.15.47-1.38,4Z" transform="translate(-1.34 -2.99)"/><path class="a" d="M69.22,25.11a4.49,4.49,0,0,1,.94-3,3.5,3.5,0,0,1,5.11,0,4.54,4.54,0,0,1,.92,3,4.51,4.51,0,0,1-.93,3,3.14,3.14,0,0,1-2.54,1.11,3.18,3.18,0,0,1-2.54-1.12A4.42,4.42,0,0,1,69.22,25.11Zm.75,0a3.8,3.8,0,0,0,.75,2.48,2.45,2.45,0,0,0,2,.91,2.4,2.4,0,0,0,2-.9,4,4,0,0,0,.71-2.49,3.91,3.91,0,0,0-.71-2.5,2.7,2.7,0,0,0-4,0A3.87,3.87,0,0,0,70,25.11Z" transform="translate(-1.34 -2.99)"/></svg>