<?xml version="1.0" encoding="utf-8"?>
<!-- Generator: Adobe Illustrator 21.1.0, SVG Export Plug-In . SVG Version: 6.00 Build 0)  -->
<svg version="1.1" id="Camada_1" xmlns="http://www.w3.org/2000/svg" xmlns:xlink="http://www.w3.org/1999/xlink" x="0px" y="0px"
	 viewBox="0 0 100 91" style="enable-background:new 0 0 100 91;" xml:space="preserve">
<style type="text/css">
	.st0{stroke:#FFFFFF;stroke-width:13;stroke-linecap:round;stroke-linejoin:round;stroke-miterlimit:10;}
	.st1{fill:#00BCD4;}
</style>
<g>
	<path class="st0" d="M0,45.5"/>
</g>
<path class="st1" d="M78.3,58.1c0,0,0-0.1,0-0.1c0-0.2-0.1-0.4-0.1-0.6l-8.3-30c-0.2-0.7-0.7-1.3-1.4-1.5c-0.3-0.2-0.6-0.2-1-0.2
	H52.5c-1.2,0-2.2,1-2.2,2.2s1,2.2,2.2,2.2H66l7.1,25.8H54.6c-1.2,0-2.2,1-2.2,2.2v2.2c0,3.3-2.7,6.1-6.1,6.1H31.3
	c-3.3,0-6.1-2.7-6.1-6.1v-2.2c0-1.2-1-2.2-2.2-2.2c0,0,0,0-0.1,0c0,0,0,0-0.1,0H5.2l7.1-25.8h13.6c1.2,0,2.2-1,2.2-2.2
	s-1-2.2-2.2-2.2H10.8c-0.4,0-0.7,0.1-1,0.2c-0.7,0.2-1.2,0.8-1.4,1.5L0.1,57.6c0,0,0,0,0,0.1c0,0.1,0,0.2,0,0.2c0,0.1,0,0.2,0,0.2
	c0,0,0,0,0,0.1v12.6c0,9.5,7.7,17.2,17.2,17.2h44c9.5,0,17.2-7.7,17.2-17.2L78.3,58.1C78.3,58.1,78.3,58.1,78.3,58.1z M73.9,70.8
	c0,7-5.7,12.7-12.7,12.7h-44c-7,0-12.7-5.7-12.7-12.7V60.4h16.3c0,5.8,4.7,10.5,10.6,10.5h14.9c5.8,0,10.5-4.7,10.6-10.5h17V70.8z
	 M36.9,46.9V5.3c0-1.2,1-2.2,2.2-2.2c1.2,0,2.2,1,2.2,2.2v41.6l8.9-8.9c0.9-0.9,2.3-0.9,3.2,0s0.9,2.3,0,3.2L40.8,53.9
	c-0.4,0.4-1,0.7-1.6,0.7s-1.1-0.2-1.6-0.7L24.9,41.2c-0.9-0.9-0.9-2.3,0-3.2s2.3-0.9,3.2,0L36.9,46.9z"/>
</svg>
