<?xml version="1.0" encoding="utf-8"?>
<!-- Generator: Adobe Illustrator 21.1.0, SVG Export Plug-In . SVG Version: 6.00 Build 0)  -->
<svg version="1.1" id="Camada_1" xmlns="http://www.w3.org/2000/svg" xmlns:xlink="http://www.w3.org/1999/xlink" x="0px" y="0px"
	 viewBox="0 0 100 100" style="enable-background:new 0 0 100 100;" xml:space="preserve">
<style type="text/css">
	.st0{fill:#60697D;}
</style>
<g>
	<path class="st0" d="M36.1,52.2L32,65.8c-0.2,1.3,0.9,2.4,2.1,2.1l13.6-4.1c0.9-0.2,1.7-0.6,2.3-1.2l43.6-43.6
		c1.8-1.8,1.8-4.6,0-6.4l-6.4-6.4c-1.8-1.8-4.6-1.8-6.4,0L37.4,49.9C36.7,50.5,36.3,51.3,36.1,52.2z"/>
	<path class="st0" d="M90.5,50C88,50,86,52,86,54.5V86H14V14h31.5C48,14,50,12,50,9.5S48,5,45.5,5h-36C7,5,5,7,5,9.5v81
		C5,93,7,95,9.5,95h81c2.5,0,4.5-2,4.5-4.5v-36C95,52,93,50,90.5,50z"/>
</g>
</svg>
