<?xml version="1.0" encoding="utf-8"?>
<!-- Generator: Adobe Illustrator 21.1.0, SVG Export Plug-In . SVG Version: 6.00 Build 0)  -->
<svg version="1.1" id="Camada_1" xmlns="http://www.w3.org/2000/svg" xmlns:xlink="http://www.w3.org/1999/xlink" x="0px" y="0px"
	 viewBox="0 0 100 94" style="enable-background:new 0 0 100 94;" xml:space="preserve">
<path d="M84.5,83.8H37.9c-5.7,0-10.4-4.7-10.4-10.4v-8.1c0-5.7,4.7-10.4,10.4-10.4h46.6c5.7,0,10.4,4.7,10.4,10.4v8.1
	C94.9,79.1,90.2,83.8,84.5,83.8z M37.9,60.4c-2.7,0-5,2.2-5,5v8.1c0,2.7,2.2,5,5,5h46.6c2.7,0,5-2.2,5-5v-8.1c0-2.7-2.2-5-5-5H37.9z
	"/>
<circle cx="43.2" cy="69.4" r="3.8"/>
<circle cx="54.7" cy="69.4" r="3.8"/>
<circle cx="66.2" cy="69.4" r="3.8"/>
<path d="M77.7,65.6c2.1,0,3.8,1.7,3.8,3.8c0,2.1-1.7,3.8-3.8,3.8c-2.1,0-3.8-1.7-3.8-3.8C73.9,67.3,75.6,65.6,77.7,65.6z"/>
<path d="M43.8,38c-1.5,0-2.7-1.2-2.7-2.7v-12c0-5.5-4.4-9.9-9.9-9.9s-9.9,4.4-9.9,9.9v12c0,1.5-1.2,2.7-2.7,2.7s-2.7-1.2-2.7-2.7
	v-12C15.8,14.9,22.7,8,31.2,8s15.3,6.9,15.3,15.3v12C46.5,36.8,45.3,38,43.8,38z"/>
<path d="M22.2,73h-5.8c-4.3,0-7.8-3.5-7.8-7.8V40.5c0-4.3,3.5-7.8,7.8-7.8h31.2c4.3,0,7.8,3.5,7.8,7.8v13.8c0,1.5-1.2,2.7-2.7,2.7
	c-1.5,0-2.7-1.2-2.7-2.7V40.5c0-1.3-1.1-2.4-2.4-2.4H16.4c-1.3,0-2.4,1.1-2.4,2.4v24.7c0,1.3,1.1,2.4,2.4,2.4h5.8
	c1.5,0,2.7,1.2,2.7,2.7C24.9,71.8,23.7,73,22.2,73z"/>
</svg>
