<?xml version="1.0" encoding="utf-8"?>
<!-- Generator: Adobe Illustrator 21.1.0, SVG Export Plug-In . SVG Version: 6.00 Build 0)  -->
<svg version="1.1" id="Camada_1" xmlns="http://www.w3.org/2000/svg" xmlns:xlink="http://www.w3.org/1999/xlink" x="0px" y="0px"
	 viewBox="0 0 100 91" style="enable-background:new 0 0 100 91;" xml:space="preserve">
<style type="text/css">
	.st0{fill:#00BCD4;}
	.st1{stroke:#FFFFFF;stroke-width:13;stroke-linecap:round;stroke-linejoin:round;stroke-miterlimit:10;}
</style>
<g>
	<g>
		<path class="st0" d="M59,87.7c1.8,0,3.2-1.4,3.2-3.2V24.8c0-1.8-1-4.2-2.3-5.5l-13-13C45.7,5,43.2,4,41.5,4H4.3
			C2.5,4,1.1,5.4,1.1,7.2v1.6C1.1,10.6,0,84.5,0,84.5c0,1.8,1.4,3.2,3.2,3.2c0,0,52.4,0,54.2,0H59z M55.8,78c0,1.8-1.5,3.2-3.2,3.2
			H10.7c-1.8,0-3.2-1.4-3.2-3.2l0.1-64.4c0-1.8,1.5-3.2,3.2-3.2l27.3,0c1.8,0,3.2,1.4,3.2,3.2v4.8c0,3.6,2.9,6.4,6.4,6.4h4.9
			c1.8,0,3.2,1.4,3.2,3.2L55.8,78z M29.1,64.3c-8.4,0-15.2-6.8-15.2-15.2c0-8.4,6.8-15.2,15.2-15.2s15.2,6.8,15.2,15.2
			c0,4-1.6,7.9-4.5,10.7C37,62.7,33.2,64.3,29.1,64.3z M29.1,39.8c-5.1,0-9.3,4.2-9.3,9.3c0,5.1,4.2,9.3,9.3,9.3
			c5.1,0,9.3-4.2,9.3-9.3c0-2.5-1-4.8-2.7-6.6C34,40.8,31.6,39.8,29.1,39.8z M45.3,68.2c-0.8,0-1.5-0.3-2.1-0.9l-7.5-7.5
			c-1.1-1.2-1.1-3.1,0.1-4.2c1.1-1.1,3-1.1,4.1,0l7.5,7.5c1.2,1.2,1.2,3,0,4.2C46.9,67.9,46.1,68.2,45.3,68.2L45.3,68.2z"/>
	</g>
</g>
<g>
	<path class="st1" d="M0,44.5"/>
</g>
</svg>
