<?xml version="1.0" encoding="utf-8"?>
<!-- Generator: Adobe Illustrator 21.1.0, SVG Export Plug-In . SVG Version: 6.00 Build 0)  -->
<svg version="1.1" id="Camada_1" xmlns="http://www.w3.org/2000/svg" xmlns:xlink="http://www.w3.org/1999/xlink" x="0px" y="0px"
	 viewBox="0 0 57.3 47.5" style="enable-background:new 0 0 57.3 47.5;" xml:space="preserve">
<title>Upload s16.4</title>
<desc>Created with Sketch.</desc>
<path d="M38.9,26.2c2.8-2.7,4.5-6.5,4.5-10.6c0-8.2-6.6-14.8-14.8-14.8S13.9,7.4,13.9,15.5c0,4.2,1.7,8,4.5,10.6
	C10.9,29.9,5.7,37.7,5.7,46.8h46C51.7,37.7,46.5,29.9,38.9,26.2z M18.1,15.5C18.1,9.7,22.8,5,28.7,5c5.8,0,10.5,4.7,10.5,10.5
	s-4.7,10.5-10.5,10.5C22.8,26.1,18.1,21.4,18.1,15.5z M21.7,28.7c2.1,1.2,4.4,1.8,7,1.8s4.9-0.7,7-1.8c6.1,2.4,10.7,7.9,11.8,14.5
	H9.9C11,36.6,15.6,31.1,21.7,28.7z"/>
</svg>
