<?xml version="1.0" encoding="utf-8"?>
<!-- Generator: Adobe Illustrator 21.1.0, SVG Export Plug-In . SVG Version: 6.00 Build 0)  -->
<svg version="1.1" id="Camada_1" xmlns="http://www.w3.org/2000/svg" xmlns:xlink="http://www.w3.org/1999/xlink" x="0px" y="0px"
	 viewBox="0 0 76.8 77.8" style="enable-background:new 0 0 76.8 77.8;" xml:space="preserve">
<path d="M38.5,19.1c-5.5,0-10.1,4.5-10.1,10.1v4.9h-4.9v20.4h29.8V34.1h-4.9v-4.9C48.6,23.6,44,19.1,38.5,19.1z M31.8,29.1
	c0-3.7,3-6.7,6.7-6.7s6.7,3,6.7,6.7V34H31.7v-4.9H31.8z M50.1,51.2H26.9V37.4h23.2V51.2z M6.5,50.3l-3.1,1.1
	C1.1,44.9,0.6,37.9,2,31.1c1.5-7,4.9-13.3,9.8-18.4c14.3-14.6,37.8-15,52.5-0.9V8.3h3.3l0.1,9.1l-9.1,0.1v-3.3H62
	C48.6,1.4,27.2,1.7,14.2,15C5,24.4,2,37.9,6.5,50.3z M73.6,26.2c2.3,6.5,2.8,13.5,1.4,20.3c-1.5,7-4.9,13.3-9.8,18.4
	c-7.3,7.5-17,11.2-26.7,11.2c-9.3,0-18.6-3.4-25.8-10.3v3.5H9.4l-0.1-9.1l9.1-0.1v3.3H15c13.4,12.8,34.8,12.5,47.8-0.8
	c9.2-9.4,12.1-22.9,7.7-35.3L73.6,26.2z"/>
</svg>
