<?xml version="1.0" encoding="utf-8"?>
<!-- Generator: Adobe Illustrator 21.1.0, SVG Export Plug-In . SVG Version: 6.00 Build 0)  -->
<svg version="1.1" id="Camada_1" xmlns="http://www.w3.org/2000/svg" xmlns:xlink="http://www.w3.org/1999/xlink" x="0px" y="0px"
	 viewBox="0 0 57.3 47.5" style="enable-background:new 0 0 57.3 47.5;" xml:space="preserve">
<title>Upload s16.4</title>
<desc>Created with Sketch.</desc>
<g>
	<g>
		<path d="M35,12c0,1.7-1.3,3-3,3s-3-1.3-3-3V9c0-1.1-0.9-2-2-2H9C7.9,7,7,7.9,7,9v30c0,1.1,0.9,2,2,2h18c1.1,0,2-0.9,2-2v-3
			c0-1.7,1.3-3,3-3s3,1.3,3,3v3c0,4.4-3.6,8-8,8H9c-4.4,0-8-3.6-8-8V9c0-4.4,3.6-8,8-8h18c4.4,0,8,3.6,8,8V12z M55.1,26l-10.2,10
			c-2.8,2.8-7.1-1.4-4.2-4.2l3.5-3.4c0.8-0.8,0.5-1.4-0.6-1.4H29.8c-1.6,0-3-1.3-3-3c0-1.6,1.3-3,3-3h13.8c1.1,0,1.4-0.6,0.6-1.4
			l-3.5-3.4c-2.8-2.8,1.4-7.1,4.2-4.2l10.2,9.9C56.3,23,56.3,24.9,55.1,26z"/>
	</g>
</g>
</svg>
