<svg xmlns="http://www.w3.org/2000/svg" viewBox="0 0 100 91"><defs><style>.a{fill:#00bcd4;}</style></defs><title>icoPrancheta 1 cópia 2</title><path class="a" d="M57.15,34a1.63,1.63,0,0,0-2.36,0L36.33,52.42a1.67,1.67,0,0,0-.51,1.1l-.42,7.42a1.72,1.72,0,0,0,.51,1.26,1.66,1.66,0,0,0,1.18.51h.08l7.42-.42a1.36,1.36,0,0,0,1.1-.51L64.14,43.32a1.63,1.63,0,0,0,0-2.36ZM38.94,59.25l.17-2.53,2.44,2.44Zm6-1.35-4.64-4.64L52,41.55l4.64,4.64ZM59.08,43.82l-4.64-4.64L56,37.67l4.64,4.64Z"/><path class="a" d="M78.35,87.23A3.21,3.21,0,0,0,81.57,84V24.47A8.89,8.89,0,0,0,79.3,19l-13-13a8.92,8.92,0,0,0-5.47-2.27H23.77A3.2,3.2,0,0,0,20.57,7V8.57C20.57,10.35,19.5,84,19.5,84a3.21,3.21,0,0,0,3.21,3.21H78.35ZM76,78.66A3.33,3.33,0,0,1,72.65,82H29.49a3.31,3.31,0,0,1-3.3-3.33l.06-66.33A3.34,3.34,0,0,1,29.58,9h28.1A3.33,3.33,0,0,1,61,12.31v5a6.63,6.63,0,0,0,6.63,6.64h5.05A3.33,3.33,0,0,1,76,27.27Z"/></svg>