<?xml version="1.0" encoding="utf-8"?>
<!-- Generator: Adobe Illustrator 21.1.0, SVG Export Plug-In . SVG Version: 6.00 Build 0)  -->
<svg version="1.1" id="Camada_1" xmlns="http://www.w3.org/2000/svg" xmlns:xlink="http://www.w3.org/1999/xlink" x="0px" y="0px"
	 viewBox="0 0 100 91" style="enable-background:new 0 0 100 91;" xml:space="preserve">
<style type="text/css">
	.st0{fill:#00BCD4;}
	.st1{stroke:#FFFFFF;stroke-width:13;stroke-linecap:round;stroke-linejoin:round;stroke-miterlimit:10;}
</style>
<g>
	<path class="st0" d="M27.4,53.8H11c-1.5,0-2.7,1.2-2.7,2.7c0,1.5,1.2,2.7,2.7,2.7h16.4c1.5,0,2.7-1.2,2.7-2.7
		C30.1,55,28.9,53.8,27.4,53.8z"/>
	<path class="st0" d="M27.4,31.9h-9.6c-1.5,0-2.7,1.2-2.7,2.7s1.2,2.7,2.7,2.7h9.6c1.5,0,2.7-1.2,2.7-2.7S28.9,31.9,27.4,31.9z"/>
	<path class="st0" d="M27.4,42.8H2.7C1.2,42.8,0,44,0,45.5s1.2,2.7,2.7,2.7h24.6c1.5,0,2.7-1.2,2.7-2.7S28.9,42.8,27.4,42.8z"/>
	<path class="st0" d="M60.2,29.1h6.8c1.5,0,2.7-1.2,2.7-2.7s-1.2-2.7-2.7-2.7h-6.8c-1.5,0-2.7,1.2-2.7,2.7S58.7,29.1,60.2,29.1z"/>
	<path class="st0" d="M95.3,18.8L84.2,7.8c-1.1-1.1-3.2-1.9-4.7-1.9H47.9c-1.5,0-2.7,1.2-2.7,2.7v1.4c0,1.5-1.2,2.7-2.7,2.7h-4.1
		c-1.5,0-2.7,1.2-2.7,2.7v68.5c0,1.5,1.2,2.7,2.7,2.7h49.3c1.5,0,2.7-1.2,2.7-2.7v-4.1c0-1.5,1.2-2.7,2.7-2.7h1.4
		c1.5,0,2.7-1.2,2.7-2.7V23.5C97.2,22,96.3,19.9,95.3,18.8z M84.9,79.8c0,0.8-0.6,1.4-1.4,1.4H43.8c-1.5,0-2.7-1.2-2.7-2.7V19.5
		c0-0.8,0.6-1.4,1.4-1.4h1.4c0.8,0,1.4,0.6,1.4,1.4v54.8c0,1.5,1.2,2.7,2.7,2.7h35.6c0.7,0,1.4,0.6,1.4,1.4V79.8z M91.7,68.8
		c0,1.5-1.2,2.7-2.7,2.7H53.4c-1.5,0-2.7-1.2-2.7-2.7l0-54.8c0-1.5,1.2-2.7,2.8-2.7l23.2,0c1.5,0,2.8,1.2,2.8,2.7v4.1
		c0,3,2.4,5.5,5.5,5.5h4.2c1.5,0,2.7,1.2,2.7,2.7L91.7,68.8z"/>
	<path class="st0" d="M60.2,40.1h19.2c1.5,0,2.7-1.2,2.7-2.7s-1.2-2.7-2.7-2.7H60.2c-1.5,0-2.7,1.2-2.7,2.7S58.7,40.1,60.2,40.1z"/>
	<path class="st0" d="M82.1,56.5H60.2c-1.5,0-2.7,1.2-2.7,2.7c0,1.5,1.2,2.7,2.7,2.7h21.9c1.5,0,2.7-1.2,2.7-2.7
		C84.9,57.7,83.7,56.5,82.1,56.5z"/>
	<path class="st0" d="M60.2,51h11c1.5,0,2.7-1.2,2.7-2.7s-1.2-2.7-2.7-2.7h-11c-1.5,0-2.7,1.2-2.7,2.7S58.7,51,60.2,51z"/>
</g>
<g>
	<path class="st1" d="M0,45.5"/>
</g>
</svg>
