<?xml version="1.0" encoding="utf-8"?>
<!-- Generator: Adobe Illustrator 21.1.0, SVG Export Plug-In . SVG Version: 6.00 Build 0)  -->
<svg version="1.1" id="Camada_1" xmlns="http://www.w3.org/2000/svg" xmlns:xlink="http://www.w3.org/1999/xlink" x="0px" y="0px"
	 viewBox="0 0 100 105" style="enable-background:new 0 0 100 105;" xml:space="preserve">
<path d="M81.1,30c-1.1-0.5-2.2-0.9-3.2-1.3c1.2-0.3,2.4-0.7,3.6-1.2c9.1-3.5,17.2-10.1,14.9-16C95.8,9.9,93.7,7,87.1,7
	C83.4,7,79,7.9,74.7,9.6c-4.4,1.7-8.3,3.9-11,6.4v-3.8c0-5.1-4.1-9.2-9.2-9.2c-5.1,0-9.2,4.1-9.2,9.2v18.6c-1.2-0.5-2.4-0.8-3.8-0.8
	c-2.5,0-4.8,1-6.5,2.7c-1.7-1.7-4-2.7-6.5-2.7c-4,0-7.4,2.5-8.6,6.1c-1.3-0.7-2.8-1.1-4.4-1.1c-5,0-9.1,4.1-9.1,9.1v2.9H6.5v27.6
	c0,15.8,12.8,28.6,28.6,28.6c15.8,0,28.6-12.8,28.6-28.6v-8.8v-3.9v-8.3v-6.6v-5.2c2.6,2.3,6,4.4,9.5,6c4.7,2.1,9.5,3.3,13.5,3.3
	c5.7,0,7.7-2.5,8.4-4c0.7-1.6,1.3-4.9-3-9.5C89.5,34.7,85.6,32,81.1,30z M64.9,22.8c1-2.2,5-5.7,11.6-8.2c3.7-1.4,7.4-2.2,10.5-2.2
	c3,0,4.2,0.8,4.4,1.1c0.4,1-3.1,5.7-11.8,9.1c-3.7,1.4-7.4,2.2-10.5,2.2c-3,0-4.2-0.8-4.4-1.1C64.7,23.5,64.7,23.2,64.9,22.8z
	 M58.3,29.9h-7.6v-3.6h7.6V29.9z M54.5,8.4c2.1,0,3.8,1.7,3.8,3.8v8.7h-7.6v-8.7C50.7,10.1,52.4,8.4,54.5,8.4z M41.6,35.3
	c2.1,0,3.8,1.7,3.8,3.8v7.1c-2.8-0.5-4.9-0.6-5.1-0.6c-0.6,0-1.5,0-2.5,0.1v-6.6C37.8,37,39.5,35.3,41.6,35.3z M24.8,39.1
	c0-2.1,1.7-3.8,3.8-3.8c2.1,0,3.8,1.7,3.8,3.8v8.1c-2.1,1.3-3.7,3.5-3.7,7.5c0,3.1,1.6,5,3.7,6.2v4.8c0,2.1-1.7,3.8-3.8,3.8
	c-2.1,0-3.8-1.7-3.8-3.8L24.8,39.1z M11.9,43.9c0-2,1.7-3.7,3.7-3.7c2,0,3.7,1.7,3.7,3.7V61c0,2-1.7,3.7-3.7,3.7
	c-2,0-3.7-1.7-3.7-3.7L11.9,43.9z M58.3,74.4c0,12.8-10.4,23.2-23.2,23.2c-12.8,0-23.2-10.4-23.2-23.2v-5.2c1.1,0.5,2.4,0.8,3.8,0.8
	c1.6,0,3.1-0.4,4.4-1.2c1.3,3.5,4.7,5.9,8.6,5.9c5.1,0,9.2-4.1,9.2-9.2v-2.8c0.4,0.1,0.8,0.2,1.2,0.3c2.1,0.5,4.5,1,5.3,1.9
	c1.8,1.8,1.7,8,1.1,11.7c-0.2,1.5,0.8,2.8,2.2,3.1c0.1,0,0.3,0,0.4,0c1.3,0,2.4-0.9,2.6-2.3c0.3-2,1.7-12.1-2.6-16.4
	c-1.9-1.9-5-2.6-7.9-3.3c-4.3-1-6.1-1.6-6.1-3.2c0-3.1,1.1-3.8,6-3.8c0.2,0,18.2,1,18.2,10.8v3.9L58.3,74.4L58.3,74.4z M58.3,51.3
	c-1.7-1.3-3.9-2.6-6.8-3.6c-0.3-0.1-0.5-0.2-0.8-0.2v-8.4v-3.8h7.6v11.5L58.3,51.3L58.3,51.3z M90.2,44.7c-0.1,0.3-1.2,0.9-3.5,0.9
	c-3.1,0-7.3-1-11.3-2.8C66.9,38.9,63.7,34,64.2,33c0.1-0.3,1.1-0.9,3.5-0.9c3.2,0,7.3,1,11.3,2.8c3.8,1.7,7.1,3.9,9.3,6.2
	C90,43,90.3,44.4,90.2,44.7z"/>
</svg>
