<?xml version="1.0" encoding="utf-8"?>
<!-- Generator: Adobe Illustrator 21.1.0, SVG Export Plug-In . SVG Version: 6.00 Build 0)  -->
<svg version="1.1" id="Camada_1" xmlns="http://www.w3.org/2000/svg" xmlns:xlink="http://www.w3.org/1999/xlink" x="0px" y="0px"
	 viewBox="0 0 86.6 87.1" style="enable-background:new 0 0 86.6 87.1;" xml:space="preserve">
<g>
	<path d="M35.8,83.7c-0.4,0-0.7-0.1-1.1-0.2c-1.2-0.4-1.9-1.6-1.9-2.8v-38L3.4,8.4C2.7,7.5,2.5,6.2,3,5.2c0.5-1.1,1.6-1.7,2.7-1.7
		h75.1c1.2,0,2.2,0.7,2.7,1.7c0.5,1.1,0.3,2.3-0.4,3.2L53.8,42.7v21.4c0,0.7-0.3,1.5-0.8,2L38,82.7C37.4,83.4,36.6,83.7,35.8,83.7z
		 M12.2,9.4L38,39.7c0.5,0.5,0.7,1.2,0.7,1.9v31.3l9-9.9V41.6c0-0.7,0.3-1.4,0.7-1.9L74.3,9.4L12.2,9.4L12.2,9.4z"/>
</g>
</svg>
